<?xml version="1.0" encoding="UTF-8" standalone="no"?>
<!-- Created with Inkscape (http://www.inkscape.org/) -->
<svg
   xmlns:dc="http://purl.org/dc/elements/1.1/"
   xmlns:cc="http://web.resource.org/cc/"
   xmlns:rdf="http://www.w3.org/1999/02/22-rdf-syntax-ns#"
   xmlns:svg="http://www.w3.org/2000/svg"
   xmlns="http://www.w3.org/2000/svg"
   xmlns:xlink="http://www.w3.org/1999/xlink"
   xmlns:sodipodi="http://sodipodi.sourceforge.net/DTD/sodipodi-0.dtd"
   xmlns:inkscape="http://www.inkscape.org/namespaces/inkscape"
   width="555.0647"
   height="555.0647"
   id="svg2"
   inkscape:label="Pozadí"
   sodipodi:version="0.32"
   inkscape:version="0.45"
   sodipodi:docbase="C:\u\Pavel\Java\ProjectJWorkSheet\src\net\pponec\jworksheet\resources"
   sodipodi:docname="logo.svg"
   inkscape:output_extension="org.inkscape.output.svg.inkscape"
   version="1.0"
   inkscape:export-filename="C:\temp\jws2.png"
   inkscape:export-xdpi="194.57001"
   inkscape:export-ydpi="194.57001"
   sodipodi:modified="TRUE">
  <defs
     id="defs3">
    <linearGradient
       id="linearGradient6349">
      <stop
         style="stop-color:#eeeef6;stop-opacity:1;"
         offset="0"
         id="stop6351" />
      <stop
         style="stop-color:#b0b7f2;stop-opacity:1;"
         offset="1"
         id="stop6353" />
    </linearGradient>
    <linearGradient
       id="linearGradient2257">
      <stop
         style="stop-color:#eeeef6;stop-opacity:1;"
         offset="0"
         id="stop2259" />
      <stop
         style="stop-color:#b0b7f2;stop-opacity:1;"
         offset="1"
         id="stop2261" />
    </linearGradient>
    <filter
       id="filter3311"
       inkscape:collect="always">
      <feGaussianBlur
         id="feGaussianBlur3313"
         stdDeviation="4.6616979"
         inkscape:collect="always" />
    </filter>
    <linearGradient
       inkscape:collect="always"
       xlink:href="#linearGradient6349"
       id="linearGradient2290"
       gradientUnits="userSpaceOnUse"
       gradientTransform="matrix(0.9469705,0,0,1.0002815,7.354055,0.37906)"
       x1="386.27908"
       y1="369.20032"
       x2="297.53827"
       y2="147.7977" />
  </defs>
  <sodipodi:namedview
     id="base"
     pagecolor="#ffffff"
     bordercolor="#666666"
     borderopacity="1.0"
     inkscape:pageopacity="0.0"
     inkscape:pageshadow="2"
     inkscape:zoom="1.2503047"
     inkscape:cx="277.53235"
     inkscape:cy="277.53235"
     inkscape:document-units="px"
     inkscape:current-layer="layer1"
     inkscape:window-width="1440"
     inkscape:window-height="874"
     inkscape:window-x="0"
     inkscape:window-y="0"
     borderlayer="true"
     showguides="false" />
  <metadata
     id="metadata6">
    <rdf:RDF>
      <cc:Work
         rdf:about="">
        <dc:format>image/svg+xml</dc:format>
        <dc:type
           rdf:resource="http://purl.org/dc/dcmitype/StillImage" />
      </cc:Work>
    </rdf:RDF>
  </metadata>
  <g
     inkscape:label="Vrstva 1"
     inkscape:groupmode="layer"
     id="layer1"
     transform="translate(-104.49895,-127.77147)">
    <rect
       style="fill:url(#linearGradient2290);fill-opacity:1;fill-rule:nonzero;stroke:#000000;stroke-width:8.06599998;stroke-miterlimit:4;stroke-dasharray:none;stroke-dashoffset:0;stroke-opacity:1"
       id="rect2423"
       width="350.78757"
       height="475.87384"
       x="108.52162"
       y="132.1463"
       rx="0"
       ry="0" />
    <path
       style="fill:none;fill-rule:evenodd;stroke:#000000;stroke-width:7.62060165;stroke-linecap:round;stroke-linejoin:miter;stroke-miterlimit:4;stroke-opacity:1"
       d="M 141.18646,309.47918 C 203.78896,319.289 269.07346,297.90801 331.61208,309.44707 L 413.37031,306.69818 M 143.22106,374.16637 C 188.36856,369.59074 233.54616,378.70432 278.76846,377.21126 C 299.49876,376.89319 320.36396,375.3617 340.50284,370.08909 C 347.02274,369.74209 353.55557,370.0977 360.07224,370.35258 M 137.40076,454.91936 C 189.74906,453.19465 242.17206,456.80703 294.54746,455.91426 C 327.36759,453.96434 359.97034,448.3329 392.92847,449.11576 M 140.21706,525.22588 C 204.13306,523.52551 267.90706,518.01977 331.87278,517.7442 C 357.10209,518.0412 382.4997,515.75364 407.63107,518.44387 C 412.37234,519.20862 417.05871,520.3235 421.65421,521.7437"
       id="path2441"
       sodipodi:nodetypes="cccccccccccccc" />
    <path
       sodipodi:nodetypes="cccsccc"
       id="path3426"
       d="M 463.62154,307.96711 C 444.08603,329.0997 406.36441,369.72266 385.02142,391.52434 C 373.18589,367.96444 334.09676,340.39588 308.57113,344.77916 C 266.18058,361.93955 213.46883,456.07291 200.15413,515.76557 C 192.98431,547.90942 200.21241,579.03144 209.48335,612.43795 C 289.88128,611.58069 416.73135,606.40675 461.01894,606.26136 C 460.95528,544.86898 464.39172,367.06716 463.62154,307.96711 z "
       style="fill:#ffffff;fill-rule:evenodd;stroke:none;stroke-width:1px;stroke-linecap:butt;stroke-linejoin:miter;stroke-opacity:1" />
    <path
       style="fill:#aa4400;fill-rule:evenodd;stroke:#000000;stroke-width:9.70407391;stroke-linecap:butt;stroke-linejoin:miter;stroke-miterlimit:4;stroke-dasharray:none;stroke-opacity:1"
       d="M 512.09183,211.50322 C 517.76336,224.03681 547.60131,229.09767 569.68137,245.67508 C 604.80769,263.82456 646.1786,297.25368 655.78526,245.31156 C 655.21822,211.98432 650.17257,209.8619 622.8113,198.18416 C 608.90643,192.59369 597.2485,183.75697 582.78428,177.15784 C 567.66646,170.26051 560.84624,160.30316 544.30049,158.75168 C 533.40471,157.72998 525.69178,163.67586 520.6998,173.46082 C 514.78978,185.04525 505.82223,197.64789 512.09183,211.50322 z "
       id="path2405"
       sodipodi:nodetypes="ccccssss" />
    <path
       style="fill:#ff6600;fill-rule:evenodd;stroke:#000000;stroke-width:8;stroke-linecap:butt;stroke-linejoin:miter;stroke-miterlimit:4;stroke-dasharray:none;stroke-opacity:1"
       d="M 556.68841,218.16873 C 527.0867,251.54512 503.25219,280.31664 474.43952,314.66983 C 455.05048,337.78728 435.91948,365.6565 416.32859,388.52025 C 403.15286,403.89713 391.74975,430.67017 382.98173,448.73894 C 376.98966,461.08712 379.54156,467.79546 392.5568,471.11127 C 403.07659,473.79133 422.19511,478.95808 430.62821,472.65596 C 439.89162,465.73335 480.72558,412.20294 488.61039,400.29724 C 506.2224,373.70389 526.56053,356.71543 547.4684,332.53451 C 565.16517,312.06736 584.40865,286.04294 596.72675,261.009 C 600.58833,253.16116 608.8316,243.18712 603.20026,235.835 C 590.34984,226.23154 569.03145,203.78096 556.68841,218.16873 z "
       id="path2399"
       sodipodi:nodetypes="csssssssscc" />
    <path
       style="fill:#666666;fill-rule:evenodd;stroke:#000000;stroke-width:8;stroke-linecap:round;stroke-linejoin:round;stroke-miterlimit:4;stroke-dasharray:none;stroke-opacity:1"
       d="M 310.5727,358.18698 C 305.53507,358.28876 301.82636,362.32894 298.62508,368.36054 C 264.58358,408.57546 238.2725,439.03929 222.27438,491.13295 C 215.90549,517.5699 210.00196,544.1389 214.99169,571.31438 C 219.07586,593.55793 227.56642,615.83262 237.68539,635.69755 C 240.25286,640.73785 243.51165,665.33136 247.61274,668.94604 C 250.81023,671.7643 270.33768,665.49987 276.65261,666.57931 C 312.43583,675.12264 347.06002,664.12173 379.5736,651.2544 C 412.09931,636.57217 441.95818,617.93195 472.90603,600.31764 C 493.62827,588.52334 502.68092,572.78962 516.66925,554.07106 C 524.85556,543.11653 532.67429,529.57066 543.02378,521.08309 C 521.53389,495.64313 516.75419,494.49205 506.23185,485.99445 C 488.80535,472.00285 474.72768,464.74537 456.31393,456.63776 C 463.98196,439.17974 490.09095,426.70703 486.31632,406.59337 C 484.1186,396.64581 473.11993,377.48829 462.36796,372.74034 C 450.57728,367.53368 426.39388,364.96599 415.71852,374.67159 C 407.29834,387.68229 395.10661,397.08926 384.85746,408.35605 C 369.18726,389.7674 345.43893,381.84381 326.51406,367.39491 C 321.98342,363.21482 317.09487,358.39241 310.5727,358.18698 z "
       id="path2401"
       sodipodi:nodetypes="cccsssccssccccscccc" />
    <path
       sodipodi:nodetypes="cccccsc"
       style="fill:#000000;fill-opacity:1;fill-rule:nonzero;stroke:#000000;stroke-width:1.08865726;stroke-miterlimit:4;stroke-dasharray:none;stroke-dashoffset:0;stroke-opacity:1"
       id="path2408"
       d="M 388.13617,477.05248 C 380.1406,487.92817 372.87597,499.3284 365.68475,510.77233 C 354.81121,529.93474 343.8607,549.01176 332.27224,567.73074 C 285.33805,615.51385 293.39059,593.9204 320.2448,558.98572 C 333.48143,541.72687 343.99835,522.56834 355.57664,504.13074 C 362.83538,492.35249 370.36268,480.77537 379.10669,470.0875 C 394.67308,451.0606 402.71757,457.21869 388.13617,477.05248 z " />
    <path
       style="fill:#000000;fill-rule:evenodd;stroke:#000000;stroke-width:1.08865726px;stroke-linecap:butt;stroke-linejoin:miter;stroke-opacity:1"
       d="M 452.31013,399.2843 C 451.1385,400.53316 449.96686,401.78201 448.79523,403.03086 C 438.35933,414.15457 450.30776,423.04822 460.30956,423.04822 C 473.24281,423.04822 469.54972,411.14124 464.18808,405.81402 C 461.07243,402.71838 458.42574,402.81678 453.76457,402.81678"
       id="path2410" />
    <path
       style="fill:#000000;fill-rule:evenodd;stroke:#000000;stroke-width:1.30897105px;stroke-linecap:butt;stroke-linejoin:miter;stroke-opacity:1"
       d="M 427.22283,430.2465 C 427.02129,430.07593 423.55439,445.33208 440.01326,445.33208 C 449.58235,445.33208 452.69238,438.64218 447.90856,432.50339 C 442.92133,426.10358 438.45886,425.84653 431.01259,423.35702 C 428.31665,422.45567 427.83549,428.90231 427.22283,430.2465 z "
       id="path2412" />
    <g
       id="g6172">
      <path
         transform="matrix(0.717761,0,0,0.841842,375.98791,64.129042)"
         sodipodi:nodetypes="ccscssccssscccssccsccsscsssscccccscscsccsccsssssssssscccsssssssscccsscsssccsccccscsccsccsscccccccsscccccc"
         d="M -328.5948,134.0972 C -311.19444,142.34037 -303.75979,187.76594 -293.20718,198.64172 C -291.08615,198.31172 -287.20927,174.98852 -285.92822,174.93862 C -284.64716,174.88872 -281.30091,194.78592 -273.88914,198.08312 C -270.9101,197.98622 -257.11117,164.82602 -255.15059,159.97462 C -253.19,155.12322 -245.24954,135.82389 -244.22056,131.44719 C -243.19159,127.07049 -258.2883,131.71584 -263.36261,131.54434 C -268.29154,132.83293 -272.49448,165.81631 -275.02332,171.88332 C -276.58169,172.12842 -279.94092,159.68662 -281.22754,154.08602 C -282.51417,148.48542 -288.20516,167.53502 -290.05561,167.63622 C -291.90605,167.73742 -292.25,163.39692 -292.3789,157.30102 C -292.50779,151.20512 -292.98505,135.40436 -295.15723,133.28586 C -308.62196,130.47476 -325.0784,130.95985 -328.5948,134.0972 z M -239.95236,151.87962 C -228.933,144.81122 -207.51061,189.08052 -220.88841,197.64962 C -234.26622,206.21872 -251.5492,199.32602 -257.14801,189.86832 C -262.74683,180.41062 -252.8791,159.94392 -239.95236,151.87962 z M -241.91322,174.26582 C -242.35142,165.38192 -239.13873,165.84582 -235.45953,173.74712 C -231.78033,181.64842 -241.475,183.14962 -241.91322,174.26582 z M -212.28906,158.86742 C -214.68222,155.23202 -213.44156,155.66902 -213.28467,153.91932 C -213.12779,152.16962 -199.89334,147.32142 -197.94489,151.12602 C -195.99642,154.93052 -201.29091,171.35836 -194.83228,155.95596 C -188.26984,148.08263 -178.13583,163.88484 -183.03742,170.10059 C -191.52475,180.86346 -191.36519,162.27879 -196.20319,170.16315 C -197.79612,172.7591 -196.7722,180.34782 -195.92925,186.12202 C -195.08629,191.89612 -192.52153,200.87882 -196.03852,199.25042 C -199.55551,197.62202 -215.05735,200.61442 -214.70247,196.65672 C -212.21068,185.14467 -210.17771,170.67485 -212.28906,158.86742 z M -174.41534,131.32202 C -174.08871,127.67932 -173.70307,123.37842 -174.58709,133.23742 C -177.71862,149.71597 -167.80173,186.24589 -180.54621,198.92462 C -180.34168,200.35512 -175.22826,197.70232 -167.50963,198.46083 C -161.50827,199.05058 -162.91078,179.70292 -162.57649,176.14102 C -151.3844,175.99502 -165.30651,201.19027 -144.23272,199.89942 C -142.54187,199.79585 -136.90889,169.54542 -157.79295,169.54502 C -139.98012,166.85472 -141.82697,154.74819 -143.14942,150.77942 C -143.8181,148.77267 -159.76621,150.55689 -163.92204,163.14782 C -162.05926,155.14172 -169.54293,144.69482 -154.27538,127.81052 C -152.08082,125.29282 -168.36811,129.20712 -171.02211,129.20712 C -173.67611,129.20712 -175.47097,129.38522 -174.41534,131.32202 M -92.186801,129.25052 C -98.086971,128.76402 -114.16265,123.71282 -124.2554,133.24092 C -134.34815,142.76902 -123.03069,165.00862 -113.43625,168.43642 C -103.84181,171.86422 -86.137341,163.04862 -85.665291,171.98782 C -85.193231,180.92702 -109.53444,177.56692 -115.54108,176.37732 C -121.54771,175.18772 -128.06901,157.62122 -132.49382,179.60952 C -136.91862,201.59782 -125.6785,204.29112 -107.69496,199.68132 C -89.711321,195.07152 -74.288391,184.91242 -72.664341,166.80032 C -71.040301,148.68822 -100.26092,159.71262 -105.64924,160.81472 C -111.03756,161.91682 -109.11294,139.90492 -100.71004,139.90492 C -92.307141,139.90492 -77.651521,158.56884 -75.917861,146.32721 C -74.421601,135.76198 -82.719811,130.9572 -92.186801,129.25052 z M -65.849651,156.54342 C -66.564611,167.51482 -68.527351,190.0925 -73.805391,198.3483 C -68.273641,198.39055 -57.752521,199.03864 -58.013771,196.95126 C -60.004901,181.0424 -52.715361,179.3707 -51.294521,178.37065 C -44.533561,173.61199 -48.272981,189.38331 -50.233401,196.96178 C -50.575701,198.28501 -37.912821,199.52922 -37.643271,197.9877 C -37.342491,196.26768 -36.508771,182.22872 -36.081841,175.15682 C -34.799501,154.15741 -56.141951,166.50712 -57.241691,166.50302 C -58.341331,166.49902 -52.792361,142.05432 -51.838741,133.47442 C -50.885111,124.89452 -62.746041,127.21012 -64.408561,130.29402 C -66.071091,133.37792 -65.134681,145.57202 -65.849651,156.54342 z M 78.867291,128.92526 C 79.560961,126.37192 68.158672,127.41012 64.735942,130.61122 C 63.266872,132.05962 63.502592,135.40465 62.299012,139.09065 C 61.415512,141.79637 39.740772,139.57237 38.452372,141.27867 C 37.163982,142.98497 56.399642,143.47281 59.652602,148.31882 C 59.630812,152.50632 53.513352,165.74962 52.515812,176.87462 C 51.518272,187.99962 50.368382,198.61187 68.747432,198.68712 C 77.936772,198.72474 84.102231,191.19822 85.489601,185.53082 C 86.876981,179.86342 69.658902,184.07882 67.050772,184.49962 C 66.077882,175.37153 70.199192,162.42814 72.772672,152.74962 C 73.634082,150.55912 73.942342,153.18712 76.639742,153.18712 C 79.337141,153.18712 85.330261,143.21811 85.047521,140.77401 C 80.540351,134.85613 80.863441,138.47831 75.205762,138.47974 C 75.558112,135.09013 78.197192,131.94919 78.867291,128.92526 z M -302.20711,185.83332 C -302.2902,180.21022 -301.32864,211.07942 -296.08019,229.53922 C -290.83173,247.99892 -328.20433,251.97582 -333.66447,237.89132 C -340.44684,220.01872 -312.7614,224.80492 -311.10878,214.07662 C -309.45616,203.34832 -302.12402,191.45642 -302.20711,185.83332 z M -320.19802,180.27322 C -311.56168,187.69732 -306.80851,172.96432 -312.01891,168.87372 C -317.22931,164.78312 -328.83436,172.84912 -320.19802,180.27322 z M -21.943801,163.29484 C -35.713591,172.18196 -37.409051,199.80121 -13.458551,198.67752 C 3.1819816,197.8968 7.3568416,183.63219 5.4323616,181.97019 C 3.5078916,180.30819 -9.5325284,194.73392 -12.880401,188.87392 C -13.419481,186.07022 -1.3460484,181.89812 4.3345016,174.03002 C 1.5160716,160.10719 -8.3181084,154.50071 -21.943801,163.29484 z M -9.6853084,177.76343 C -13.192851,181.32693 -13.387531,180.40412 -18.506571,183.71332 C -24.854421,174.43042 -13.214581,173.18268 -9.6853084,177.76343 z M 20.259922,163.6481 C 6.4901416,172.53522 4.7946816,200.15447 28.745172,199.03078 C 45.385712,198.25006 47.528842,184.64304 45.604362,182.98104 C 43.679892,181.31904 32.671192,195.08718 29.323322,189.22718 C 28.784242,186.42348 40.857682,182.25138 46.538222,174.38328 C 43.747692,165.46469 33.885622,154.85397 20.259922,163.6481 z M 32.712132,177.49863 C 29.204582,181.06213 28.816202,180.75738 23.697162,184.06658 C 17.349312,174.78368 28.110392,171.32991 32.712132,177.49863 z "
         style="opacity:0.23235797;fill:#000000;fill-rule:evenodd;stroke:#000000;stroke-width:1px;stroke-linecap:butt;stroke-linejoin:miter;stroke-opacity:1;filter:url(#filter3311)"
         id="path2214" />
      <path
         sodipodi:nodetypes="ccscssccssscccssccsccsscsssscccccscscsccsccsssssssssscccssssssssccccccsssccsccccscsccsccsscccccccsscccccc"
         d="M 132.11244,170.01083 C 145.13226,176.9503 153.39209,215.19145 161.66631,224.34713 C 163.16746,224.06933 164.4491,204.43487 165.36536,204.39287 C 166.28164,204.35086 169.96402,221.10115 175.4961,223.87689 C 177.62811,223.79531 185.39829,195.87966 186.49328,191.79555 C 187.58828,187.71143 192.04556,171.46444 192.50243,167.77994 C 192.9593,164.09546 182.42245,168.0061 178.76927,167.86174 C 175.3144,168.94653 174.42048,196.71331 172.99584,201.82078 C 171.89308,202.02713 168.6812,191.55309 167.39728,186.83828 C 166.11335,182.12345 163.25457,198.16019 161.93291,198.24539 C 160.61125,198.3306 160.08501,194.67658 159.60017,189.5448 C 159.11534,184.41302 157.75586,171.11126 156.06042,169.32782 C 146.21504,166.96131 134.43445,167.36969 132.11244,170.01083 z M 196.88099,184.98083 C 204.33534,179.03036 222.56064,216.29812 213.51007,223.51195 C 204.45949,230.72577 191.61083,224.9232 186.98353,216.96132 C 182.35623,208.99942 188.12169,191.76969 196.88099,184.98083 z M 196.91431,203.82648 C 196.02804,196.34765 198.36382,196.73817 201.51314,203.38981 C 204.66245,210.04146 197.80059,211.30523 196.91431,203.82648 z M 217.18636,190.86345 C 215.23466,187.80302 216.15328,188.17092 216.15328,186.69793 C 216.15328,185.22496 225.34043,181.14354 226.98381,184.34642 C 228.62721,187.54921 225.88431,201.37885 229.52878,188.41248 C 233.73231,181.78437 242.02312,195.08734 238.905,200.32 C 233.5058,209.38065 232.42425,193.73529 229.45915,200.37267 C 228.48289,202.55805 229.70622,208.94656 230.68287,213.80751 C 231.65953,218.6684 234.07852,226.23042 231.44937,224.85956 C 228.82021,223.4887 217.88617,226.00784 217.88617,222.67608 C 218.93378,212.98475 219.46172,200.80345 217.18636,190.86345 z M 242.59784,167.67459 C 242.59784,164.608 242.59784,160.98733 242.59784,169.28704 C 241.41069,183.15938 250.87969,213.91181 242.54817,224.5853 C 242.78705,225.78954 246.28652,223.55631 251.87548,224.19484 C 256.22097,224.69133 253.9691,208.40365 253.97982,205.4051 C 262.00366,205.28218 253.63246,226.49261 268.67532,225.40592 C 269.88227,225.31873 271.97853,199.85264 256.98874,199.8523 C 269.60095,197.58749 267.49619,187.39572 266.29156,184.05464 C 265.68246,182.36527 254.35036,183.8673 252.1778,194.46687 C 252.99956,187.727 246.95573,178.93236 256.82752,164.71846 C 258.24066,162.59895 246.80221,165.89416 244.89726,165.89416 C 242.99232,165.89416 241.7155,166.04409 242.59784,167.67459 M 301.48497,165.9307 C 297.21874,165.52115 285.35516,161.26883 278.7242,169.28999 C 272.09323,177.31114 281.64778,196.03338 288.75489,198.91904 C 295.86204,201.8047 308.00223,194.38337 308.91638,201.90876 C 309.83052,209.43415 292.14309,206.60547 287.7552,205.60403 C 283.36732,204.60257 277.55602,189.81435 275.79521,208.32503 C 274.03441,226.8357 282.27546,229.10303 294.88667,225.2223 C 307.49794,221.34159 317.91409,212.78922 317.91409,197.54171 C 317.91409,182.29417 297.6502,191.57498 293.85359,192.50277 C 290.05701,193.43057 290.02175,174.90003 296.05303,174.90003 C 302.08431,174.90003 313.80473,190.6121 314.26122,180.30658 C 314.6552,171.41232 308.38984,167.36746 301.48497,165.9307 z M 322.14529,188.907 C 322.33822,198.14321 322.38253,217.15004 319.12548,224.10012 C 323.09868,224.13568 330.69204,224.68128 330.37019,222.92403 C 327.91715,209.53128 331.04173,204.37079 331.99718,203.52892 C 336.54367,199.52287 336.87469,216.55301 335.95531,222.9329 C 335.79479,224.04683 344.96378,225.09427 345.05803,223.79655 C 345.16323,222.34856 344.85811,210.52997 344.70941,204.57655 C 344.27832,186.89836 330.55435,187.44278 329.76474,187.43933 C 328.97521,187.43597 330.5848,176.70949 330.71708,169.48656 C 330.84936,162.26364 322.48508,164.21301 321.49026,166.80917 C 320.49546,169.40533 321.95237,179.67082 322.14529,188.907 z M 424.24,165.65688 C 424.57356,163.50739 416.45627,164.38138 414.20558,167.0762 C 413.24436,168.29553 413.62882,171.1115 413.00217,174.21453 C 408.36352,176.22193 394.01699,173.59187 393.20203,175.02829 C 394.31792,176.59993 409.04986,177.90362 411.69659,181.98319 C 411.95046,185.50841 408.41191,196.65719 408.41191,206.02267 C 408.41191,215.38817 408.26955,224.32199 421.46616,224.38535 C 428.06435,224.41703 432.00526,218.08088 432.63631,213.30983 C 433.26737,208.53877 421.1802,212.08747 419.33527,212.44172 C 418.0495,204.7573 420.17459,193.86101 421.39884,185.71323 C 421.87614,183.86917 422.26654,186.08154 424.20262,186.08154 C 426.13871,186.08154 429.79874,177.68921 429.4385,175.63166 C 425.82257,170.64973 426.2876,173.69904 422.22682,173.70025 C 422.26157,170.84674 423.95365,168.20255 424.24,165.65688 z M 146.27306,215.44106 C 145.85153,210.7073 156.63751,234.81772 161.59271,250.35794 C 166.5479,265.8981 139.97924,269.24601 135.15371,257.38909 C 129.13533,242.34319 149.31489,246.37242 149.81061,237.34088 C 150.30633,228.30935 146.6946,220.17483 146.27306,215.44106 z M 135.00204,208.88375 C 141.67867,215.13367 144.14211,202.73081 140.13902,199.28718 C 136.13594,195.84353 128.3254,202.63385 135.00204,208.88375 z M 355.29371,185.67686 C 345.98226,193.15841 345.34287,225.32325 362.46128,224.37727 C 374.35496,223.72002 376.43346,211.71147 374.94518,210.31234 C 373.45691,208.9132 365.02542,221.05738 362.24531,216.12419 C 361.67794,213.76391 370.07528,210.25167 373.64616,203.62796 C 370.72714,191.90714 364.50774,178.27359 355.29371,185.67686 z M 363.82356,206.7709 C 361.53533,209.77082 362.87683,207.84406 359.41558,210.6299 C 356.26188,200.93858 361.79557,196.3466 363.82356,206.7709 z M 386.40863,185.97426 C 377.09719,193.45579 375.65781,225.62063 392.77622,224.67465 C 404.66989,224.0174 405.33242,212.56245 403.84413,211.16332 C 402.35587,209.76418 395.34036,221.35477 392.56025,216.42157 C 391.99287,214.06131 400.3902,210.54906 403.96108,203.92536 C 401.38416,196.41731 395.62265,178.57098 386.40863,185.97426 z M 394.23777,206.54798 C 391.94953,209.54789 393.05172,208.63427 389.59043,211.42009 C 386.83675,202.19792 390.9378,195.25599 394.23777,206.54798 z "
         style="fill:#4e4e75;fill-opacity:1;fill-rule:evenodd;stroke:#57578a;stroke-width:2.67809749;stroke-linecap:butt;stroke-linejoin:miter;stroke-miterlimit:4;stroke-dasharray:none;stroke-opacity:1"
         id="path6665" />
    </g>
    <path
       style="opacity:0.15767637;fill:#000000;fill-opacity:1;fill-rule:nonzero;stroke:none;stroke-width:2.5;stroke-linecap:round;stroke-linejoin:bevel;stroke-miterlimit:4;stroke-dasharray:none;stroke-dashoffset:0;stroke-opacity:1"
       d="M 643.80403,208.45494 C 633.51908,211.56327 622.74291,227.57949 622.38967,235.30407 C 619.00663,243.93548 626.39171,244.49886 623.16381,252.50225 C 612.77369,254.42701 614.86229,246.89765 606.28916,244.96973 C 598.87249,247.80637 601.0118,239.72371 598.97129,237.29278 C 587.62301,239.28411 580.77695,249.79366 576.49153,259.57994 C 547.39961,282.60574 537.19138,321.49995 508.16755,344.64428 C 501.66826,353.20302 488.67184,354.85991 485.51788,365.60183 C 485.32184,375.80517 480.64178,386.41663 484.50229,396.36872 C 490.1649,406.27482 494.11814,389.20103 499.13674,385.83688 C 520.29708,359.68444 545.94842,337.43363 565.71456,310.09031 C 577.44543,294.51986 588.02996,278.06863 597.08528,260.79869 C 609.52148,267.08215 623.07525,275.22035 637.55839,272.35721 C 649.89301,268.84686 654.73558,254.74333 655.73206,243.28483 C 655.2072,231.07773 655.4618,215.93846 643.80403,208.45494 z "
       id="path4233"
       sodipodi:nodetypes="ccccccccccccccc" />
    <path
       style="opacity:0.42738588;fill:none;fill-opacity:1;fill-rule:nonzero;stroke:#000000;stroke-width:5.794;stroke-linecap:butt;stroke-linejoin:round;stroke-miterlimit:4;stroke-dasharray:none;stroke-dashoffset:0;stroke-opacity:1"
       d="M 363.87545,3.2843374 L 552.3116,3.2157249 L 552.44294,75.75481"
       id="path3261"
       transform="translate(104.49895,127.77147)"
       sodipodi:nodetypes="ccc" />
    <path
       style="opacity:0.42738588;fill:none;fill-opacity:1;fill-rule:nonzero;stroke:#000000;stroke-width:5.79400015;stroke-linecap:butt;stroke-linejoin:round;stroke-miterlimit:4;stroke-dasharray:none;stroke-dashoffset:0;stroke-opacity:1"
       d="M 552.20869,151.04125 L 551.97443,552.23696 L 3.3589791,552.23696 L 3.1590279,493.02011"
       id="path4232"
       transform="translate(104.49895,127.77147)"
       sodipodi:nodetypes="cccc" />
  </g>
</svg>
