<?xml version="1.0" encoding="UTF-8" standalone="no"?>
<!-- Created with Inkscape (http://www.inkscape.org/) -->
<svg
   xmlns:dc="http://purl.org/dc/elements/1.1/"
   xmlns:cc="http://web.resource.org/cc/"
   xmlns:rdf="http://www.w3.org/1999/02/22-rdf-syntax-ns#"
   xmlns:svg="http://www.w3.org/2000/svg"
   xmlns="http://www.w3.org/2000/svg"
   xmlns:xlink="http://www.w3.org/1999/xlink"
   xmlns:sodipodi="http://sodipodi.sourceforge.net/DTD/sodipodi-0.dtd"
   xmlns:inkscape="http://www.inkscape.org/namespaces/inkscape"
   width="540.25726"
   height="126.12693"
   id="svg2"
   inkscape:label="Pozadí"
   sodipodi:version="0.32"
   inkscape:version="0.45"
   sodipodi:docbase="C:\u\Pavel\Java\ProjectJWorkSheet\www"
   sodipodi:docname="title.svg"
   inkscape:output_extension="org.inkscape.output.svg.inkscape"
   version="1.0"
   inkscape:export-filename="C:\u\Pavel\Java\ProjectJWorkSheet\www\title.png"
   inkscape:export-xdpi="249.88"
   inkscape:export-ydpi="249.88"
   sodipodi:modified="true">
  <defs
     id="defs6242">
    <linearGradient
       gradientTransform="matrix(0.9469705,0,0,1.0002815,7.5984353,-0.1039291)"
       gradientUnits="userSpaceOnUse"
       y2="147.7977"
       x2="297.53827"
       y1="369.20032"
       x1="386.27908"
       id="linearGradient6355"
       xlink:href="#linearGradient6349"
       inkscape:collect="always" />
    <linearGradient
       id="linearGradient6349">
      <stop
         id="stop6351"
         offset="0"
         style="stop-color:#eeeef6;stop-opacity:1;" />
      <stop
         id="stop6353"
         offset="1"
         style="stop-color:#b0b7f2;stop-opacity:1;" />
    </linearGradient>
    <filter
       inkscape:collect="always"
       id="filter3311">
      <feGaussianBlur
         inkscape:collect="always"
         stdDeviation="4.6616979"
         id="feGaussianBlur3313" />
    </filter>
  </defs>
  <sodipodi:namedview
     id="base"
     pagecolor="#ffffff"
     bordercolor="#666666"
     borderopacity="1.0"
     inkscape:pageopacity="1"
     inkscape:pageshadow="2"
     inkscape:zoom="24.90642"
     inkscape:cx="492.08357"
     inkscape:cy="108.67078"
     inkscape:document-units="px"
     inkscape:current-layer="layer1"
     inkscape:window-width="1440"
     inkscape:window-height="874"
     inkscape:window-x="0"
     inkscape:window-y="0"
     showborder="true" />
  <metadata
     id="metadata6245">
    <rdf:RDF>
      <cc:Work
         rdf:about="">
        <dc:format>image/svg+xml</dc:format>
        <dc:type
           rdf:resource="http://purl.org/dc/dcmitype/StillImage" />
      </cc:Work>
    </rdf:RDF>
  </metadata>
  <g
     inkscape:label="Vrstva 1"
     inkscape:groupmode="layer"
     id="layer1"
     transform="translate(-111.26016,-208.12792)">
    <path
       id="path2214"
       style="opacity:0.23235797;fill:#000000;fill-rule:evenodd;stroke:#000000;stroke-width:1px;stroke-linecap:butt;stroke-linejoin:miter;stroke-opacity:1;filter:url(#filter3311)"
       d="M 236.85362,221.49782 C 254.25398,229.74099 261.68863,275.16656 272.24124,286.04234 C 274.36227,285.71234 278.23915,262.38914 279.5202,262.33924 C 280.80126,262.28934 284.14751,282.18654 291.55928,285.48374 C 294.53832,285.38684 308.33725,252.22664 310.29783,247.37524 C 312.25842,242.52384 320.19888,223.22451 321.22786,218.84781 C 322.25683,214.47111 307.16012,219.11646 302.08581,218.94496 C 297.15688,220.23355 292.95394,253.21693 290.4251,259.28394 C 288.86673,259.52904 285.5075,247.08724 284.22088,241.48664 C 282.93425,235.88604 277.24326,254.93564 275.39281,255.03684 C 273.54237,255.13804 273.19842,250.79754 273.06952,244.70164 C 272.94063,238.60574 272.46337,222.80498 270.29119,220.68648 C 256.82646,217.87538 240.37002,218.36047 236.85362,221.49782 z M 325.49606,239.28024 C 336.51542,232.21184 357.93781,276.48114 344.56001,285.05024 C 331.1822,293.61934 313.89922,286.72664 308.30041,277.26894 C 302.70159,267.81124 312.56932,247.34454 325.49606,239.28024 z M 323.5352,261.66644 C 323.097,252.78254 326.30969,253.24644 329.98889,261.14774 C 333.66809,269.04904 323.97342,270.55024 323.5352,261.66644 z M 353.15936,246.26804 C 350.7662,242.63264 352.00686,243.06964 352.16375,241.31994 C 352.32063,239.57024 365.55508,234.72204 367.50353,238.52664 C 369.452,242.33114 364.15751,258.75898 370.61614,243.35658 C 377.17858,235.48325 387.31259,251.28546 382.411,257.50121 C 373.92367,268.26408 374.08323,249.67941 369.24523,257.56377 C 367.6523,260.15972 368.67622,267.74844 369.51917,273.52264 C 370.36213,279.29674 372.92689,288.27944 369.4099,286.65104 C 365.89291,285.02264 350.39107,288.01504 350.74595,284.05734 C 353.23774,272.54529 355.27071,258.07547 353.15936,246.26804 z M 391.03308,218.72264 C 391.35971,215.07994 391.74535,210.77904 390.86133,220.63804 C 387.7298,237.11659 397.64669,273.64651 384.90221,286.32524 C 385.10674,287.75574 390.22016,285.10294 397.93879,285.86145 C 403.94015,286.4512 402.53764,267.10354 402.87193,263.54164 C 414.06402,263.39564 400.14191,288.59089 421.2157,287.30004 C 422.90655,287.19647 428.53953,256.94604 407.65547,256.94564 C 425.4683,254.25534 423.62145,242.14881 422.299,238.18004 C 421.63032,236.17329 405.68221,237.95751 401.52638,250.54844 C 403.38916,242.54234 395.90549,232.09544 411.17304,215.21114 C 413.3676,212.69344 397.08031,216.60774 394.42631,216.60774 C 391.77231,216.60774 389.97745,216.78584 391.03308,218.72264 M 473.26162,216.65114 C 467.36145,216.16464 451.28577,211.11344 441.19302,220.64154 C 431.10027,230.16964 442.41773,252.40924 452.01217,255.83704 C 461.60661,259.26484 479.31108,250.44924 479.78313,259.38844 C 480.25519,268.32764 455.91398,264.96754 449.90734,263.77794 C 443.90071,262.58834 437.37941,245.02184 432.9546,267.01014 C 428.5298,288.99844 439.76992,291.69174 457.75346,287.08194 C 475.7371,282.47214 491.16003,272.31304 492.78408,254.20094 C 494.40812,236.08884 465.1875,247.11324 459.79918,248.21534 C 454.41086,249.31744 456.33548,227.30554 464.73838,227.30554 C 473.14128,227.30554 487.7969,245.96946 489.53056,233.72783 C 491.02682,223.1626 482.72861,218.35782 473.26162,216.65114 z M 499.59877,243.94404 C 498.88381,254.91544 496.92107,277.49312 491.64303,285.74892 C 497.17478,285.79117 507.6959,286.43926 507.43465,284.35188 C 505.44352,268.44302 512.73306,266.77132 514.1539,265.77127 C 520.91486,261.01261 517.17544,276.78393 515.21502,284.3624 C 514.87272,285.68563 527.5356,286.92984 527.80515,285.38832 C 528.10593,283.6683 528.93965,269.62934 529.36658,262.55744 C 530.64892,241.55803 509.30647,253.90774 508.20673,253.90364 C 507.10709,253.89964 512.65606,229.45494 513.60968,220.87504 C 514.56331,212.29514 502.70238,214.61074 501.03986,217.69464 C 499.37733,220.77854 500.31374,232.97264 499.59877,243.94404 z M 644.31571,216.32588 C 645.00938,213.77254 633.60709,214.81074 630.18436,218.01184 C 628.71529,219.46024 628.95101,222.80527 627.74743,226.49127 C 626.86393,229.19699 605.18919,226.97299 603.90079,228.67929 C 602.6124,230.38559 621.84806,230.87343 625.10102,235.71944 C 625.07923,239.90694 618.96177,253.15024 617.96423,264.27524 C 616.96669,275.40024 615.8168,286.01249 634.19585,286.08774 C 643.38519,286.12536 649.55065,278.59884 650.93802,272.93144 C 652.3254,267.26404 635.10732,271.47944 632.49919,271.90024 C 631.5263,262.77215 635.64761,249.82876 638.22109,240.15024 C 639.0825,237.95974 639.39076,240.58774 642.08816,240.58774 C 644.78556,240.58774 650.77868,230.61873 650.49594,228.17463 C 645.98877,222.25675 646.31186,225.87893 640.65418,225.88036 C 641.00653,222.49075 643.64561,219.34981 644.31571,216.32588 z M 263.24131,273.23394 C 263.15822,267.61084 264.11978,298.48004 269.36823,316.93984 C 274.61669,335.39954 237.24409,339.37644 231.78395,325.29194 C 225.00158,307.41934 252.68702,312.20554 254.33964,301.47724 C 255.99226,290.74894 263.3244,278.85704 263.24131,273.23394 z M 245.2504,267.67384 C 253.88674,275.09794 258.63991,260.36494 253.42951,256.27434 C 248.21911,252.18374 236.61406,260.24974 245.2504,267.67384 z M 543.50462,250.69546 C 529.73483,259.58258 528.03937,287.20183 551.98987,286.07814 C 568.6304,285.29742 572.80526,271.03281 570.88078,269.37081 C 568.95631,267.70881 555.91589,282.13454 552.56802,276.27454 C 552.02894,273.47084 564.10237,269.29874 569.78292,261.43064 C 566.96449,247.50781 557.13031,241.90133 543.50462,250.69546 z M 555.76311,265.16405 C 552.25557,268.72755 552.06089,267.80474 546.94185,271.11394 C 540.594,261.83104 552.23384,260.5833 555.76311,265.16405 z M 585.70834,251.04872 C 571.93856,259.93584 570.2431,287.55509 594.19359,286.4314 C 610.83413,285.65068 612.97726,272.04366 611.05278,270.38166 C 609.12831,268.71966 598.11961,282.4878 594.77174,276.6278 C 594.23266,273.8241 606.3061,269.652 611.98664,261.7839 C 609.19611,252.86531 599.33404,242.25459 585.70834,251.04872 z M 598.16055,264.89925 C 594.653,268.46275 594.26462,268.158 589.14558,271.4672 C 582.79773,262.1843 593.55881,258.73053 598.16055,264.89925 z "
       sodipodi:nodetypes="ccscssccssscccssccsccsscsssscccccscscsccsccsssssssssscccsssssssscccsscsssccsccccscsccsccsscccccccsscccccc" />
    <path
       id="path6665"
       style="fill:#afafe9;fill-rule:evenodd;stroke:#000000;stroke-width:1px;stroke-linecap:butt;stroke-linejoin:miter;stroke-opacity:1"
       d="M 222.73656,215.75905 C 240.87605,224.00222 252.38384,269.42779 263.91164,280.30357 C 266.00308,279.97357 267.78866,256.65037 269.06524,256.60047 C 270.34182,256.55057 275.47218,276.44777 283.17959,279.74497 C 286.14995,279.64807 296.97553,246.48787 298.5011,241.63647 C 300.02668,236.78507 306.23665,217.48574 306.87318,213.10904 C 307.50971,208.73234 292.82953,213.37769 287.73984,213.20619 C 282.92646,214.49478 281.68101,247.47816 279.69618,253.54517 C 278.15979,253.79027 273.68495,241.34847 271.89614,235.74787 C 270.10733,230.14727 266.12444,249.19687 264.28307,249.29807 C 262.4417,249.39927 261.70855,245.05877 261.03306,238.96287 C 260.35757,232.86697 258.46352,217.06621 256.10138,214.94771 C 242.38459,212.13661 225.97165,212.6217 222.73656,215.75905 z M 312.97348,233.54147 C 323.35905,226.47307 348.7509,270.74237 336.14145,279.31147 C 323.532,287.88057 305.63098,280.98787 299.18413,271.53017 C 292.73728,262.07247 300.76984,241.60577 312.97348,233.54147 z M 313.01991,255.92767 C 311.78512,247.04377 315.03941,247.50767 319.42709,255.40897 C 323.81477,263.31027 314.2547,264.81147 313.01991,255.92767 z M 341.26335,240.52927 C 338.54422,236.89387 339.82406,237.33087 339.82406,235.58117 C 339.82406,233.83147 352.62379,228.98327 354.91338,232.78787 C 357.20298,236.59237 353.38152,253.02021 358.45907,237.61781 C 364.31554,229.74448 375.86647,245.54669 371.52223,251.76244 C 363.99996,262.52531 362.49311,243.94064 358.36207,251.825 C 357.00191,254.42095 358.70628,262.00967 360.06698,267.78387 C 361.42768,273.55797 364.79788,282.54067 361.13488,280.91227 C 357.47188,279.28387 342.23836,282.27627 342.23836,278.31857 C 343.69791,266.80652 344.43343,252.3367 341.26335,240.52927 z M 376.66718,212.98387 C 376.66718,209.34117 376.66718,205.04027 376.66718,214.89927 C 375.01322,231.37782 388.20561,267.90774 376.59798,280.58647 C 376.93078,282.01697 381.80633,279.36417 389.59297,280.12268 C 395.64721,280.71243 392.50987,261.36477 392.52478,257.80287 C 403.70378,257.65687 392.04083,282.85212 412.99888,281.56127 C 414.68044,281.4577 417.60098,251.20727 396.71688,251.20687 C 414.28848,248.51657 411.35609,236.41004 409.67777,232.44127 C 408.82915,230.43452 393.04103,232.21874 390.01418,244.80967 C 391.15908,236.80357 382.73868,226.35667 396.49228,209.47237 C 398.46108,206.95467 382.52478,210.86897 379.87078,210.86897 C 377.21678,210.86897 375.43788,211.04707 376.66718,212.98387 M 458.70998,210.91237 C 452.76618,210.42587 436.23758,205.37467 426.99918,214.90277 C 417.76078,224.43087 431.07238,246.67047 440.97418,250.09827 C 450.87598,253.52607 467.78998,244.71047 469.06358,253.64967 C 470.33718,262.58887 445.69468,259.22877 439.58138,258.03917 C 433.46808,256.84957 425.37166,239.28307 422.91846,261.27137 C 420.46526,283.25967 431.94688,285.95297 449.51708,281.34317 C 467.08738,276.73337 481.59938,266.57427 481.59938,248.46217 C 481.59938,230.35007 453.36728,241.37447 448.07778,242.47657 C 442.78828,243.57867 442.73918,221.56677 451.14208,221.56677 C 459.54498,221.56677 475.87412,240.23069 476.51012,227.98906 C 477.05903,217.42383 468.33,212.61905 458.70998,210.91237 z M 487.49438,238.20527 C 487.76318,249.17667 487.8249,271.75435 483.28712,280.01015 C 488.82266,280.0524 499.40189,280.70049 498.95347,278.61311 C 495.53586,262.70425 499.88907,256.57426 501.22024,255.57421 C 507.55451,250.81555 508.01568,271.04516 506.73479,278.62363 C 506.51114,279.94686 519.28558,281.19107 519.41691,279.64955 C 519.56346,277.92953 519.13836,263.89057 518.93118,256.81867 C 518.33058,235.81926 499.21005,236.46596 498.10995,236.46186 C 497.00995,236.45786 499.25248,223.71617 499.43678,215.13627 C 499.62108,206.55637 487.96778,208.87197 486.58178,211.95587 C 485.19578,215.03977 487.22558,227.23387 487.49438,238.20527 z M 629.7349,210.58711 C 630.19962,208.03377 618.89043,209.07197 615.75473,212.27307 C 614.41553,213.72147 614.95118,217.0665 614.07811,220.7525 C 607.61544,223.13702 587.62754,220.01285 586.49214,221.71915 C 588.04681,223.58605 608.57168,225.13466 612.25916,229.98067 C 612.61285,234.16817 607.68286,247.41147 607.68286,258.53647 C 607.68286,269.66147 607.48453,280.27372 625.87032,280.34897 C 635.06304,280.38659 640.55362,272.86007 641.43282,267.19267 C 642.31202,261.52527 625.47192,265.74067 622.90152,266.16147 C 621.11015,257.03338 624.07088,244.08999 625.77652,234.41147 C 626.44152,232.22097 626.98542,234.84897 629.68282,234.84897 C 632.38022,234.84897 637.47946,224.87996 636.97756,222.43586 C 631.93976,216.51798 632.58764,220.14016 626.93009,220.14159 C 626.9785,216.75198 629.33595,213.61104 629.7349,210.58711 z M 242.46544,269.72431 C 241.87815,264.10121 256.90542,292.74127 263.80909,311.20107 C 270.71276,329.66077 233.69676,333.63767 226.97371,319.55317 C 218.58878,301.68057 246.70338,306.46677 247.39403,295.73847 C 248.08468,285.01017 243.05273,275.34741 242.46544,269.72431 z M 226.76241,261.93507 C 236.06444,269.35917 239.49656,254.62617 233.91937,250.53557 C 228.34218,246.44497 217.46038,254.51097 226.76241,261.93507 z M 533.67746,234.36826 C 520.70455,243.25538 519.81374,281.46306 543.66348,280.33937 C 560.23401,279.55865 563.12981,265.29404 561.05631,263.63204 C 558.98281,261.97004 547.23589,276.39577 543.36258,270.53577 C 542.5721,267.73207 554.27144,263.55997 559.24648,255.69187 C 555.17965,241.76904 546.51462,225.57413 533.67746,234.36826 z M 545.56144,259.42528 C 542.37342,262.98878 544.24243,260.70006 539.42011,264.00926 C 535.02633,252.49722 542.736,247.04253 545.56144,259.42528 z M 577.02743,234.72152 C 564.05452,243.60864 562.04914,281.81632 585.89888,280.69263 C 602.46941,279.91191 603.39245,266.30489 601.31895,264.64289 C 599.24545,262.98089 589.47129,276.74903 585.59798,270.88903 C 584.8075,268.08533 596.50684,263.91323 601.48188,256.04513 C 597.89165,247.12654 589.86459,225.92739 577.02743,234.72152 z M 587.93513,259.16048 C 584.74711,262.72398 586.2827,261.63871 581.46038,264.94791 C 577.62389,253.99315 583.33756,245.74704 587.93513,259.16048 z "
       sodipodi:nodetypes="ccscssccssscccssccsccsscsssscccccscscsccsccsssssssssscccssssssssccccccsssccsccccscsccsccsscccccccsscccccc" />
    <g
       transform="matrix(0.1353411,0,0,0.1353411,97.085497,195.96083)"
       id="g2200"
       inkscape:label="Vrstva 1">
      <rect
         ry="0"
         rx="0"
         y="131.66331"
         x="108.76591"
         height="475.87384"
         width="350.78757"
         id="rect2423"
         style="opacity:1;fill:url(#linearGradient6355);fill-opacity:1;fill-rule:nonzero;stroke:#000000;stroke-width:8.06599998;stroke-miterlimit:4;stroke-dasharray:none;stroke-dashoffset:0;stroke-opacity:1" />
      <path
         sodipodi:nodetypes="cccccccccccccc"
         id="path2441"
         d="M 141.43077,308.99619 C 204.03331,318.80601 269.31781,297.42502 331.85643,308.96408 L 413.61466,306.21519 M 143.46537,373.68338 C 188.61287,369.10775 233.79051,378.22133 279.01281,376.72827 C 299.74316,376.4102 320.60835,374.87871 340.74719,369.6061 C 347.26709,369.2591 353.79992,369.61471 360.31659,369.86959 M 137.64514,454.43637 C 189.99337,452.71166 242.41644,456.32404 294.79185,455.43127 C 327.61194,453.48135 360.21469,447.84991 393.17282,448.63277 M 140.46139,524.74289 C 204.3774,523.04252 268.15139,517.53678 332.11713,517.26121 C 357.34644,517.55821 382.74405,515.27065 407.87542,517.96088 C 412.61669,518.72563 417.30306,519.84051 421.89856,521.26071"
         style="fill:none;fill-rule:evenodd;stroke:#000000;stroke-width:7.62060165;stroke-linecap:round;stroke-linejoin:miter;stroke-miterlimit:4;stroke-opacity:1" />
      <g
         transform="translate(7.4486498,-7.1778757)"
         id="g5370">
        <path
           sodipodi:nodetypes="cccsccc"
           id="path3426"
           d="M 456.41728,314.662 C 436.88177,335.79459 399.16015,376.41755 377.81716,398.21923 C 365.98163,374.65933 326.8925,347.09077 301.36687,351.47405 C 258.97632,368.63444 206.26457,462.7678 192.94987,522.46046 C 185.78005,554.60431 193.00815,585.72633 202.27909,619.13284 C 282.67702,618.27558 409.52709,613.10164 453.81468,612.95625 C 453.75102,551.56387 457.18746,373.76205 456.41728,314.662 z "
           style="fill:#ffffff;fill-rule:evenodd;stroke:none;stroke-width:1px;stroke-linecap:butt;stroke-linejoin:miter;stroke-opacity:1" />
        <g
           id="g2415"
           transform="matrix(1.0739439,0,0,1.1035723,67.068346,-44.601633)">
          <path
             sodipodi:nodetypes="ccccssss"
             id="path2405"
             d="M 407.6742,238.1355 C 412.95523,249.49279 440.73876,254.07868 461.29855,269.10027 C 494.00633,285.54639 532.52874,315.83812 541.47395,268.77087 C 540.94596,238.57145 536.24771,236.64822 510.77034,226.06646 C 497.82286,221.00067 486.96761,212.99329 473.49929,207.0135 C 459.42237,200.7635 453.07174,191.74066 437.66521,190.33479 C 427.51963,189.40898 420.33776,194.79683 415.68949,203.66345 C 410.18639,214.16066 401.83628,225.58052 407.6742,238.1355 z "
             style="fill:#aa4400;fill-rule:evenodd;stroke:#000000;stroke-width:8.91380024;stroke-linecap:butt;stroke-linejoin:miter;stroke-miterlimit:4;stroke-dasharray:none;stroke-opacity:1" />
          <path
             sodipodi:nodetypes="csssssssscc"
             transform="translate(104.49895,127.77147)"
             id="path2399"
             d="M 344.70124,116.40397 C 317.13768,146.64793 294.94424,172.71919 268.1154,203.84827 C 250.06135,224.7961 232.24757,250.04974 214.00556,270.76769 C 201.73702,284.70142 191.11904,308.96176 182.95472,325.33474 C 177.37522,336.52402 179.75142,342.60277 191.87053,345.60739 C 201.666,348.03592 219.46816,352.71776 227.32062,347.00711 C 235.94622,340.7342 273.96865,292.22771 281.31057,281.43939 C 297.70995,257.34187 316.64774,241.94781 336.11605,220.03631 C 352.59435,201.49004 370.51286,177.90806 381.98283,155.2236 C 385.57853,148.1123 393.25423,139.07434 388.01062,132.41223 C 376.04499,123.71007 356.19443,103.36652 344.70124,116.40397 z "
             style="fill:#ff6600;fill-rule:evenodd;stroke:#000000;stroke-width:7.34850168;stroke-linecap:butt;stroke-linejoin:miter;stroke-miterlimit:4;stroke-dasharray:none;stroke-opacity:1" />
          <path
             sodipodi:nodetypes="cccsssccssccccscccc"
             id="path2401"
             transform="translate(104.49895,127.77147)"
             d="M 115.53125,243.28125 C 110.84047,243.37348 107.38712,247.03448 104.40625,252.5 C 72.708606,288.94068 48.209109,316.54542 33.3125,363.75 C 27.382127,387.70579 21.885075,411.78124 26.53125,436.40625 C 30.334212,456.5622 38.240176,476.74637 47.662421,494.74694 C 50.053115,499.3142 53.087532,521.59956 56.90625,524.875 C 59.883585,527.42876 78.066517,521.75226 83.946646,522.73039 C 117.2661,530.47191 149.50632,520.50346 179.78125,508.84375 C 210.06748,495.53948 237.87049,478.64868 266.6875,462.6875 C 285.98296,452.00012 294.41231,437.74304 307.4375,420.78125 C 315.06016,410.85482 322.34055,398.58026 331.97745,390.88926 C 311.9672,367.83689 307.51659,366.79384 297.71875,359.09375 C 281.49211,346.41529 268.38372,339.83894 251.23781,332.49224 C 258.37787,316.67269 282.68919,305.37057 279.17445,287.14461 C 277.12805,278.13065 266.88667,260.7711 256.875,256.46875 C 245.89614,251.75075 223.37783,249.42404 213.4375,258.21875 C 205.59707,270.00837 194.24477,278.53248 184.70131,288.74186 C 170.11004,271.89779 147.99685,264.71784 130.375,251.625 C 126.15631,247.83722 121.60435,243.4674 115.53125,243.28125 z "
             style="fill:#666666;fill-rule:evenodd;stroke:#000000;stroke-width:7.34850168;stroke-linecap:round;stroke-linejoin:round;stroke-miterlimit:4;stroke-dasharray:none;stroke-opacity:1" />
          <path
             d="M 292.25322,478.76247 C 284.80816,488.61746 278.04372,498.94776 271.34764,509.31765 C 261.22277,526.68164 251.02623,543.96824 240.23567,560.93041 C 196.53302,604.22899 204.03112,584.66212 229.03635,553.00613 C 241.3616,537.36705 251.1544,520.00659 261.9355,503.29939 C 268.69445,492.62655 275.70348,482.13596 283.84544,472.45117 C 298.34004,455.20998 305.83065,460.79012 292.25322,478.76247 z "
             id="path2408"
             style="opacity:1;fill:#000000;fill-opacity:1;fill-rule:nonzero;stroke:#000000;stroke-width:1;stroke-miterlimit:4;stroke-dasharray:none;stroke-dashoffset:0;stroke-opacity:1"
             sodipodi:nodetypes="cccccsc" />
          <path
             transform="translate(104.49895,127.77147)"
             id="path2410"
             d="M 247.50968,280.52151 C 246.41872,281.65316 245.32775,282.78481 244.23679,283.91645 C 234.51943,293.99618 245.64518,302.05514 254.95833,302.05514 C 267.00109,302.05514 263.56228,291.26566 258.5698,286.43841 C 255.66867,283.6333 253.20421,283.72246 248.86398,283.72246"
             style="fill:#000000;fill-rule:evenodd;stroke:#000000;stroke-width:1px;stroke-linecap:butt;stroke-linejoin:miter;stroke-opacity:1" />
          <path
             id="path2412"
             d="M 328.64866,436.34932 C 328.46099,436.19476 325.2328,450.01909 340.55843,450.01909 C 349.46866,450.01909 352.36456,443.95705 347.91012,438.3944 C 343.26627,432.59522 339.11106,432.3623 332.17748,430.10643 C 329.66716,429.28968 329.21913,435.13129 328.64866,436.34932 z "
             style="fill:#000000;fill-rule:evenodd;stroke:#000000;stroke-width:1.20237195px;stroke-linecap:butt;stroke-linejoin:miter;stroke-opacity:1" />
        </g>
      </g>
      <path
         id="flowRoot2425"
         d="M 165.09347,186.10338 C 164.80106,186.10342 164.33813,186.05754 163.70468,185.96575 C 163.07117,185.87405 162.55951,185.82817 162.16971,185.82812 L 160.26927,185.82812 C 160.253,185.38253 160.24488,186.31313 160.24491,188.61993 C 160.24488,207.38933 159.42461,221.06002 157.78408,229.63205 C 156.58208,235.94967 154.39738,239.10848 151.23,239.10849 C 148.20877,239.10848 145.22005,237.43077 142.26382,234.07536 C 138.91774,230.32673 137.2447,225.92275 137.2447,220.8634 C 137.2447,216.774 138.38984,214.7293 140.68012,214.72928 C 142.97039,214.7293 144.11552,216.74779 144.11553,220.78476 C 144.11552,222.3314 144.93985,223.98946 146.58854,225.75891 C 148.2372,227.52837 149.78435,228.4131 151.23,228.4131 C 151.81474,228.4131 152.23705,226.66985 152.49696,223.18336 C 152.56192,222.34451 152.74059,218.26821 153.03298,210.95444 C 153.27661,204.97763 153.39844,197.5328 153.39844,188.61993 C 153.39844,188.25298 153.37407,187.40102 153.32536,186.06406 L 152.76496,186.10338 C 152.05026,186.15585 151.09192,186.14275 149.88994,186.06406 C 148.4443,185.95925 147.48596,185.90682 147.01492,185.90676 C 146.05656,185.90682 145.24441,185.43496 144.57845,184.4912 C 143.86375,183.46889 143.50641,182.14508 143.50641,180.51975 C 143.50641,176.95468 144.96016,175.17212 147.86768,175.17206 C 148.41993,175.17212 149.24021,175.20488 150.32851,175.27035 C 151.41678,175.33595 152.22893,175.36871 152.76496,175.36866 C 153.78827,175.36871 155.31918,175.27697 157.3577,175.09341 C 159.39618,174.90997 160.92709,174.81822 161.95043,174.81816 C 166.30354,174.81822 168.48012,176.77118 168.48014,180.67704 C 168.48012,182.04023 168.18774,183.25919 167.60302,184.33392 C 166.93702,185.51361 166.1005,186.10342 165.09347,186.10338 L 165.09347,186.10338 z M 219.15855,183.9407 C 218.88237,185.01554 218.5575,186.33935 218.18396,187.91216 C 217.90778,189.43262 217.4611,191.68704 216.84391,194.67542 C 215.91801,198.52894 214.44802,204.13878 212.43392,211.50493 C 210.371,219.00221 208.89289,224.59893 207.99955,228.29513 C 207.33356,231.04762 206.70819,233.24962 206.12348,234.9011 C 205.36002,237.07688 204.19863,238.16477 202.63934,238.16477 C 201.71346,238.16477 200.87694,237.75845 200.12979,236.94582 C 199.25263,236.00211 198.78158,234.75693 198.71664,233.21029 C 197.96942,230.19566 197.49838,227.73153 197.30349,225.81788 C 196.58876,220.20806 195.59794,211.7802 194.33101,200.53429 C 193.27518,205.80338 192.13817,210.53503 190.91996,214.72928 C 189.10071,221.0207 187.90685,225.96207 187.33836,229.55341 C 187.48453,230.13013 187.55762,230.74616 187.55764,231.40151 C 187.55762,233.02679 187.11094,234.35061 186.21758,235.37296 C 185.4379,236.23803 184.57702,236.67056 183.63494,236.67056 C 182.44918,236.67056 181.46648,236.1856 180.68682,235.21567 C 179.84217,234.1409 179.40361,232.67289 179.37113,230.81168 L 178.61583,226.2111 C 178.0798,222.12169 177.20267,216.01379 175.98445,207.88738 C 174.9124,201.67464 173.11754,192.82736 170.59987,181.3455 C 170.45368,180.69019 170.38059,180.03484 170.38059,179.37943 C 170.38059,177.80664 170.75418,176.56147 171.50136,175.64391 C 172.16732,174.80511 172.97135,174.38569 173.91346,174.38563 C 175.14793,174.38569 176.13063,175.22454 176.86158,176.90219 C 177.26764,177.81975 177.73057,179.48434 178.25035,181.89599 C 179.84217,189.28844 181.63702,200.06247 183.63494,214.2181 C 184.93437,209.10636 186.25818,203.07711 187.60637,196.13031 C 188.69464,190.46808 189.57988,186.44421 190.26211,184.05867 C 191.8864,178.34403 193.54319,175.48668 195.2325,175.48662 C 196.82429,175.48668 197.98566,176.88914 198.71664,179.69401 C 199.07396,181.03099 199.42318,183.45579 199.76431,186.96844 C 199.86174,188.04327 200.0729,190.67779 200.39779,194.87203 C 200.73887,199.3809 201.76217,207.58594 203.46773,219.48715 C 205.18946,212.98606 207.5041,203.6145 210.41165,191.37242 C 210.59028,190.63848 211.01261,188.22677 211.67861,184.1373 C 212.14962,181.20137 212.74249,178.88142 213.45722,177.17744 C 214.23685,175.3425 215.27641,174.42501 216.5759,174.42495 C 217.56668,174.42501 218.38695,174.91653 219.03672,175.8995 C 219.6864,176.88259 220.01126,178.14742 220.01131,179.69401 C 220.01126,180.24455 219.72701,181.66012 219.15855,183.9407 L 219.15855,183.9407 z M 233.53367,236.70989 C 230.5287,236.70988 227.94605,235.04529 225.78573,231.71608 C 223.41424,228.07231 222.17164,223.20958 222.05795,217.12788 C 221.94424,211.33456 222.92694,206.17037 225.00606,201.63529 C 227.475,196.28763 230.9104,193.61379 235.3123,193.61374 C 238.56089,193.61379 241.14354,195.71091 243.06024,199.90515 C 244.78198,203.68002 245.64286,208.35925 245.64289,213.94286 C 245.64286,220.02456 244.63579,225.21497 242.62168,229.51408 C 240.36387,234.31129 237.33454,236.70988 233.53367,236.70989 L 233.53367,236.70989 z M 234.99555,203.99457 C 232.99764,203.96839 231.42206,205.43638 230.26881,208.39855 C 229.29422,210.88892 228.80693,213.79869 228.80694,217.12788 C 228.80693,220.2736 229.35919,222.6853 230.46374,224.363 C 231.34085,225.69993 232.36416,226.36839 233.53367,226.36838 C 234.94681,226.36839 236.17316,225.59508 237.21273,224.04842 C 238.39846,222.23965 239.03194,219.78863 239.11317,216.69534 C 239.32431,208.2544 237.95178,204.02081 234.99555,203.99457 L 234.99555,203.99457 z M 270.12933,206.03927 C 269.98311,210.05007 268.85423,212.05546 266.74265,212.05544 C 264.696,212.05546 263.67269,210.35154 263.67271,206.94367 L 263.55088,202.97221 C 259.89618,203.91595 257.28104,206.94369 255.70548,212.05544 L 255.72984,231.83405 C 255.72984,233.32826 255.41309,234.56688 254.77962,235.5499 C 254.14614,236.53293 253.3421,237.02445 252.36752,237.02446 C 251.36045,237.02445 250.58078,236.50017 250.02852,235.4516 C 249.50874,234.50789 249.24885,233.30204 249.24885,231.83405 L 249.24885,206.0786 C 249.24885,205.26598 249.26509,204.05357 249.29759,202.44137 C 249.33006,200.82923 249.3463,199.61683 249.34631,198.80416 C 249.3463,197.3362 249.61838,196.11069 250.16253,195.12761 C 250.70666,194.14462 251.48227,193.65311 252.48934,193.65306 C 254.29232,193.65311 255.36436,195.14731 255.70548,198.13569 C 258.58049,194.67546 261.77224,192.94532 265.28077,192.94528 C 268.52937,192.94532 270.15367,196.43181 270.15369,203.40475 C 270.15367,204.74169 270.14555,205.61987 270.12933,206.03927 L 270.12933,206.03927 z M 294.17721,236.00211 C 292.89399,236.00211 291.9194,235.00596 291.25345,233.01368 C 290.45753,230.6282 289.26366,227.81017 287.67185,224.5596 C 285.20289,219.50028 283.89533,216.81332 283.74915,216.49874 C 282.44969,218.04539 281.37765,219.22503 280.53303,220.03766 C 280.37058,223.68144 280.28937,227.16793 280.28938,230.49712 C 280.28937,232.01755 279.97262,233.27583 279.33915,234.27196 C 278.70567,235.2681 277.90164,235.76617 276.92706,235.76617 C 274.63678,235.76617 273.49164,233.56418 273.49164,229.1602 C 273.49164,227.08928 273.58505,223.98946 273.77184,219.86071 C 273.95863,215.73199 274.05203,212.63217 274.05203,210.56122 C 274.05203,206.76019 274.08858,202.4152 274.16167,197.52621 C 274.23476,192.63731 274.27131,188.31852 274.27131,184.56984 C 274.27131,183.44268 274.23476,182.11232 274.16167,180.57873 C 274.08858,179.04526 274.05203,177.71488 274.05203,176.58762 C 274.05203,175.06726 274.36877,173.81553 275.00226,172.83244 C 275.63573,171.84947 276.43976,171.35795 277.41435,171.35788 C 278.38892,171.35795 279.19296,171.84947 279.82645,172.83244 C 280.45992,173.81553 280.77666,175.06726 280.77667,176.58762 C 280.77666,177.7411 280.81727,179.10423 280.89849,180.67704 C 280.97969,182.24994 281.0203,183.61307 281.02031,184.76645 C 281.0203,187.88599 280.97158,191.58219 280.87412,195.85505 C 280.77666,199.94451 280.73604,203.58828 280.75231,206.78637 C 282.96135,204.03392 286.32366,199.02702 290.83925,191.76564 C 291.55393,190.61226 292.36609,190.03555 293.27571,190.0355 C 294.1853,190.03555 294.98933,190.57294 295.68781,191.64768 C 296.38624,192.7225 296.73547,193.96767 296.73549,195.3832 C 296.73547,196.58909 296.41872,197.75563 295.78527,198.8828 C 293.86856,202.34311 291.58641,205.96066 288.93882,209.73547 L 294.00666,220.27358 C 296.45933,225.54265 297.68568,229.05534 297.68571,230.81168 C 297.68568,232.25347 297.32834,233.47899 296.61367,234.48823 C 295.89895,235.49747 295.0868,236.00211 294.17721,236.00211 L 294.17721,236.00211 z M 312.10956,236.78852 C 307.98381,236.78852 304.73519,235.30742 302.36371,232.34522 C 300.36581,229.88109 299.36688,227.03685 299.36688,223.8125 C 299.36688,222.16102 299.6755,220.79132 300.29271,219.70342 C 300.90995,218.61555 301.76272,218.0716 302.85102,218.07159 C 304.31288,218.0716 305.38492,219.27746 306.06715,221.68914 C 306.99298,224.91351 309.08836,226.52568 312.35319,226.52567 C 315.14702,226.52568 317.85149,225.54265 320.46664,223.57657 C 323.17918,221.55809 324.53551,219.34299 324.53551,216.93128 C 324.53551,213.62831 323.69085,211.45252 322.00161,210.40394 C 320.79959,209.64375 318.38748,209.19811 314.76529,209.06701 C 311.95525,208.96219 309.43757,208.11022 307.21229,206.51113 C 304.20731,204.33537 302.72918,201.21589 302.77791,197.15266 C 302.82665,192.04093 304.51593,187.35514 307.84575,183.0953 C 311.17558,178.83554 314.84651,176.70564 318.85858,176.70558 C 320.45034,176.70564 322.41577,177.29546 324.75482,178.47504 C 327.66229,179.94309 329.11605,181.6339 329.11605,183.54749 C 329.11605,184.91068 328.82364,186.11653 328.23895,187.16505 C 327.58919,188.34473 326.75268,188.93455 325.72938,188.93451 C 324.96593,188.93455 323.82487,188.67241 322.30616,188.14808 C 320.7874,187.62384 319.6382,187.36171 318.85858,187.36166 C 316.7632,187.38792 314.77341,188.20056 312.88923,189.79958 C 310.94006,191.4249 309.96545,193.19436 309.9655,195.10796 C 309.96545,196.10413 310.26189,196.92332 310.85478,197.56553 C 311.44766,198.20781 312.33693,198.66001 313.52269,198.92212 C 315.60181,199.10565 317.67282,199.28915 319.73571,199.47262 C 323.34164,199.9183 326.19227,201.55667 328.28769,204.38777 C 330.59417,207.53351 331.74742,211.88506 331.74745,217.44245 C 331.74742,224.20573 329.35968,229.33059 324.58425,232.81708 C 320.9458,235.46471 316.78757,236.78852 312.10956,236.78852 L 312.10956,236.78852 z M 342.5166,198.41094 C 343.70232,196.52356 344.97336,195.11454 346.32966,194.1839 C 347.68595,193.25334 349.13563,192.78804 350.67875,192.78799 C 353.45632,192.78804 355.45418,194.04632 356.67246,196.56284 C 357.58203,198.45029 358.13429,201.34696 358.32926,205.25285 C 358.41043,208.47722 358.49975,211.71467 358.59726,214.9652 C 358.85711,219.18571 359.01952,221.7547 359.08456,222.67218 C 359.31194,225.58197 359.58804,228.12474 359.91292,230.30052 C 359.99414,230.85101 360.03472,231.33597 360.03476,231.7554 C 360.03472,233.2234 359.68958,234.4358 358.99927,235.39263 C 358.30893,236.34943 357.50081,236.82785 356.57499,236.82785 C 354.9344,236.82785 353.87048,235.51714 353.38322,232.89572 C 352.99339,230.77238 352.63603,227.78396 352.31119,223.93046 C 352.01878,220.23428 351.87262,217.19343 351.87262,214.80792 C 351.87262,214.15259 351.8929,213.163 351.93353,211.83916 C 351.97412,210.51538 351.99441,209.52579 351.99445,208.87041 C 351.99441,206.93058 351.97819,205.80338 351.94572,205.48877 C 351.79951,204.04703 351.3772,203.32613 350.67875,203.3261 C 348.87574,203.32613 347.24334,204.66305 345.78148,207.33688 C 345.03428,208.67382 344.01095,211.2166 342.71154,214.9652 C 342.7115,224.45475 342.42724,230.16945 341.85877,232.10929 C 341.22527,234.25886 340.21819,235.33363 338.83757,235.33364 C 337.92791,235.33363 337.11984,234.84212 336.41328,233.85909 C 335.70668,232.87606 335.35339,231.66365 335.35339,230.22187 C 335.35339,229.72381 335.44275,229.02913 335.62143,228.13784 C 335.73512,227.56113 335.83258,224.02222 335.9138,217.52109 C 335.83258,212.25206 335.8488,203.48342 335.96252,191.21515 L 336.01126,189.91754 C 336.10869,186.82431 336.15743,184.7534 336.15743,183.70477 C 336.15743,182.89219 336.08029,181.69289 335.92598,180.10687 C 335.77167,178.52098 335.69449,177.32167 335.69453,176.50898 C 335.69449,175.01482 336.02748,173.78931 336.69346,172.83244 C 337.35945,171.87568 338.16343,171.39727 339.10557,171.39721 C 340.71359,171.39727 341.79378,172.78662 342.34607,175.56527 C 342.65466,177.13818 342.80897,179.54988 342.80897,182.80038 C 342.80897,185.42185 342.76023,188.08259 342.66281,190.78261 C 342.56534,193.35164 342.5166,195.89442 342.5166,198.41094 L 342.5166,198.41094 z M 376.40778,236.19871 C 372.52566,236.1987 369.35015,234.7045 366.88124,231.71608 C 364.1524,228.4131 362.78796,223.76009 362.78796,217.75702 C 362.78796,211.12485 363.86815,205.51501 366.02847,200.9275 C 368.43242,195.84199 371.67294,193.29922 375.74995,193.29918 C 378.57621,193.29922 380.92332,194.03321 382.79133,195.50116 C 385.24401,197.44105 386.47037,200.45568 386.47037,204.54506 C 386.47037,207.42865 385.47139,209.98453 383.47353,212.21271 C 382.56388,213.23509 380.73654,214.7293 377.99149,216.69534 L 369.78061,222.55422 C 370.56027,223.91737 371.50236,224.93972 372.60691,225.62128 C 373.71142,226.30286 374.97839,226.64364 376.40778,226.64363 C 378.58432,226.64364 380.42792,225.92275 381.93856,224.48096 C 383.2867,223.19647 384.36688,222.55423 385.17906,222.55422 C 386.86831,222.55423 387.71292,223.87805 387.71297,226.52567 C 387.71292,229.51409 386.35663,231.95202 383.6441,233.83943 C 381.37005,235.41228 378.95794,236.1987 376.40778,236.19871 L 376.40778,236.19871 z M 375.74995,202.81493 C 374.23931,202.81496 372.94801,203.6276 371.87598,205.25285 C 370.8039,206.87815 369.94303,209.31607 369.2933,212.5666 C 371.12878,211.28214 372.95612,210.01075 374.77534,208.75245 C 376.96815,207.15341 378.71427,205.6723 380.01376,204.30914 C 378.92546,203.31303 377.50418,202.81496 375.74995,202.81493 L 375.74995,202.81493 z M 404.28093,236.19871 C 400.3988,236.1987 397.22329,234.7045 394.75434,231.71608 C 392.0255,228.4131 390.6611,223.76009 390.6611,217.75702 C 390.6611,211.12485 391.74124,205.51501 393.90157,200.9275 C 396.30557,195.84199 399.54604,193.29922 403.62305,193.29918 C 406.44935,193.29922 408.79647,194.03321 410.66443,195.50116 C 413.11712,197.44105 414.34346,200.45568 414.34351,204.54506 C 414.34346,207.42865 413.34453,209.98453 411.34667,212.21271 C 410.43702,213.23509 408.60968,214.7293 405.86463,216.69534 L 397.65375,222.55422 C 398.43338,223.91737 399.37551,224.93972 400.48001,225.62128 C 401.58457,226.30286 402.85149,226.64364 404.28093,226.64363 C 406.45747,226.64364 408.30106,225.92275 409.81166,224.48096 C 411.15984,223.19647 412.23998,222.55423 413.05217,222.55422 C 414.74145,222.55423 415.58606,223.87805 415.58611,226.52567 C 415.58606,229.51409 414.22978,231.95202 411.51719,233.83943 C 409.24314,235.41228 406.83104,236.1987 404.28093,236.19871 L 404.28093,236.19871 z M 403.62305,202.81493 C 402.11245,202.81496 400.82111,203.6276 399.74908,205.25285 C 398.67704,206.87815 397.81617,209.31607 397.16645,212.5666 C 399.00189,211.28214 400.82926,210.01075 402.64848,208.75245 C 404.84129,207.15341 406.58741,205.6723 407.88686,204.30914 C 406.79857,203.31303 405.37728,202.81496 403.62305,202.81493 L 403.62305,202.81493 z M 437.07571,202.73628 C 436.73457,202.73631 436.33255,202.71665 435.86965,202.67731 C 435.40668,202.63801 435.00466,202.61835 434.6636,202.61832 C 433.99762,202.61835 433.22606,202.72321 432.34896,202.9329 C 432.64133,213.52345 432.7875,220.44399 432.78753,223.69454 C 432.7875,224.03533 432.7956,224.67103 432.81185,225.60161 C 432.82812,226.53223 432.83622,227.28589 432.83622,227.86259 C 432.83622,233.89186 431.65862,236.90649 429.30335,236.9065 C 428.41,236.90649 427.63844,236.46085 426.98872,235.56957 C 426.27404,234.62586 425.91668,233.44622 425.91668,232.03065 C 425.91668,231.08694 425.94105,229.67138 425.98979,227.78396 C 426.03852,225.89654 426.06289,224.48097 426.06289,223.53725 C 426.06289,220.36535 425.91668,213.57588 425.62432,203.16882 C 424.61724,203.09021 423.09446,202.87394 421.05596,202.52001 C 419.01743,202.16615 417.99817,200.46879 417.99817,197.42791 C 417.99817,195.95996 418.30679,194.71478 418.92404,193.69238 C 419.54129,192.67007 420.33718,192.15889 421.31178,192.15886 C 421.91277,192.15889 423.29342,192.31619 425.45375,192.63071 C 425.43749,191.7919 425.3969,190.40255 425.33196,188.46266 C 425.26696,186.78499 425.23448,185.48739 425.23448,184.56984 C 425.23448,183.1019 425.56744,181.88294 426.23342,180.91296 C 426.8994,179.94309 427.70343,179.45813 428.64552,179.45808 C 431.04948,179.45813 432.2515,182.72179 432.2515,189.24908 L 432.20276,192.47343 C 433.2098,192.23754 434.0301,192.11957 434.6636,192.11953 C 436.53152,192.11957 437.8066,192.31619 438.48884,192.70935 C 439.78824,193.44339 440.43796,195.04246 440.43801,197.50655 C 440.43796,199.0008 440.12124,200.24597 439.48777,201.24207 C 438.85426,202.23825 438.05027,202.73631 437.07571,202.73628 L 437.07571,202.73628 z "
         style="font-size:12px;font-style:normal;font-variant:normal;font-weight:bold;font-stretch:normal;text-align:start;line-height:125%;writing-mode:lr-tb;text-anchor:start;stroke:#000000;stroke-width:0.79147881;stroke-miterlimit:4;stroke-dasharray:none;stroke-opacity:1;font-family:Comic Sans MS" />
    </g>
  </g>
</svg>
